HIERARCHY
ROOT Hips
{
	OFFSET 0.000000 0.000000 0.000000
	CHANNELS 6 Xposition Yposition Zposition Xrotation Yrotation Zrotation
	JOINT LeftUpLeg_virtual
	{
		OFFSET 0.000000 0.000000 0.000000
		CHANNELS 3 Xrotation Yrotation Zrotation
		JOINT LeftUpLeg
		{
			OFFSET 11.394100 -6.187798 -0.413800
			CHANNELS 3 Xrotation Yrotation Zrotation
			JOINT LeftLeg
			{
				OFFSET 0.430247 -32.302673 3.732800
				CHANNELS 3 Xrotation Yrotation Zrotation
				JOINT LeftFoot
				{
					OFFSET -0.430247 -48.264931 -6.423300
					CHANNELS 3 Xrotation Yrotation Zrotation
					JOINT LeftToeBase
					{
						OFFSET 4.230900 -16.068199 23.438400
						CHANNELS 3 Xrotation Yrotation Zrotation
						JOINT LeftToe_End
						{
							OFFSET 4.510700 0.695400 19.974600
							CHANNELS 3 Xrotation Yrotation Zrotation
							End Site
							{
								OFFSET 0 0 0
							}
						}
					}
				}
			}
		}
	}
	JOINT RightUpLeg_virtual
	{
		OFFSET 0.000000 0.000000 0.000000
		CHANNELS 3 Xrotation Yrotation Zrotation
		JOINT RightUpLeg
		{
			OFFSET -11.333700 -6.187798 -0.413800
			CHANNELS 3 Xrotation Yrotation Zrotation
			JOINT RightLeg
			{
				OFFSET -0.430392 -32.302628 3.733000
				CHANNELS 3 Xrotation Yrotation Zrotation
				JOINT RightFoot
				{
					OFFSET 0.430392 -48.264973 -6.423500
					CHANNELS 3 Xrotation Yrotation Zrotation
					JOINT RightToeBase
					{
						OFFSET -4.230900 -16.068199 23.438400
						CHANNELS 3 Xrotation Yrotation Zrotation
						JOINT RightToe_End
						{
							OFFSET -4.510700 0.695400 19.974600
							CHANNELS 3 Xrotation Yrotation Zrotation
							End Site
							{
								OFFSET 0 0 0
							}
						}
					}
				}
			}
		}
	}
	JOINT Spine_virtual
	{
		OFFSET 0.000000 0.000000 0.000000
		CHANNELS 3 Xrotation Yrotation Zrotation
		JOINT Spine
		{
			OFFSET -0.002400 12.777504 0.315300
			CHANNELS 3 Xrotation Yrotation Zrotation
			JOINT Spine1
			{
				OFFSET -0.002067 5.816869 0.032633
				CHANNELS 3 Xrotation Yrotation Zrotation
				JOINT Spine1_split
				{
					OFFSET -0.002067 5.816869 0.032633
					CHANNELS 3 Xrotation Yrotation Zrotation
					JOINT Spine2
					{
						OFFSET -0.002067 5.816869 0.032633
						CHANNELS 3 Xrotation Yrotation Zrotation
						JOINT Neck_virtual
						{
							OFFSET 0.000000 0.000000 0.000000
							CHANNELS 3 Xrotation Yrotation Zrotation
							JOINT Neck
							{
								OFFSET -0.003700 21.199493 -0.826900
								CHANNELS 3 Xrotation Yrotation Zrotation
								JOINT Head
								{
									OFFSET 0.000000 20.442200 4.834800
									CHANNELS 3 Xrotation Yrotation Zrotation
									JOINT HeadTop_End
									{
										OFFSET 0.000000 34.668396 4.968400
										CHANNELS 3 Xrotation Yrotation Zrotation
										End Site
										{
											OFFSET 0 0 0
										}
									}
								}
							}
						}
						JOINT LeftShoulder_virtual
						{
							OFFSET 0.000000 0.000000 0.000000
							CHANNELS 3 Xrotation Yrotation Zrotation
							JOINT LeftShoulder
							{
								OFFSET 3.288150 8.794197 -1.372250
								CHANNELS 3 Xrotation Yrotation Zrotation
								JOINT LeftShoulder_split
								{
									OFFSET 3.288150 8.794197 -1.372250
									CHANNELS 3 Xrotation Yrotation Zrotation
									JOINT LeftArm
									{
										OFFSET 11.953299 -2.279007 -0.146200
										CHANNELS 3 Xrotation Yrotation Zrotation
										JOINT LeftForeArm
										{
											OFFSET 18.448900 0.000000 0.000000
											CHANNELS 3 Xrotation Yrotation Zrotation
											JOINT LeftHand
											{
												OFFSET 29.527798 0.000000 0.000000
												CHANNELS 3 Xrotation Yrotation Zrotation
												End Site
												{
													OFFSET 0 0 0
												}
											}
										}
									}
								}
							}
						}
						JOINT RightShoulder_virtual
						{
							OFFSET 0.000000 0.000000 0.000000
							CHANNELS 3 Xrotation Yrotation Zrotation
							JOINT RightShoulder
							{
								OFFSET -3.249400 8.794197 -1.372250
								CHANNELS 3 Xrotation Yrotation Zrotation
								JOINT RightShoulder_split
								{
									OFFSET -3.249400 8.794197 -1.372250
									CHANNELS 3 Xrotation Yrotation Zrotation
									JOINT RightArm
									{
										OFFSET -11.953299 -2.279007 -0.146200
										CHANNELS 3 Xrotation Yrotation Zrotation
										JOINT RightForeArm
										{
											OFFSET -18.448900 0.000000 0.000000
											CHANNELS 3 Xrotation Yrotation Zrotation
											JOINT RightHand
											{
												OFFSET -29.527802 0.000000 0.000000
												CHANNELS 3 Xrotation Yrotation Zrotation
												End Site
												{
													OFFSET 0 0 0
												}
											}
										}
									}
								}
							}
						}
					}
				}
			}
		}
	}
}
MOTION
Frames: 11
Frame Time: 0.03333333
1.797843 76.814110 -59.511707 0.000000 0.000000 0.000000 19.541344 -59.585887 15.318275 -46.002847 -3.259736 25.213254 67.840226 -2.155360 3.279987 -15.540704 14.516133 -24.975488 -4.697441 -5.978935 -1.990531 0.000000 0.000000 0.000000 20.601883 -59.639477 16.739201 -58.641969 -0.097780 -10.659847 75.590298 10.214436 -8.188006 -28.653214 -3.480704 19.261169 8.202292 5.620000 -49.010869 0.000000 0.000000 0.000000 20.087706 -58.054101 14.998891 3.120552 13.634559 -0.749462 10.696803 14.326460 -7.077370 0.363941 -1.043143 0.134246 0.000000 0.000000 0.000000 13.253202 15.734261 -6.941652 -8.340581 7.856834 17.277932 -40.903971 -37.319208 -18.991756 0.000000 0.000000 0.000000 8.818964 14.079226 -6.885160 8.028156 -11.443383 5.881854 1.908273 3.058862 -1.472674 -94.151050 -34.646609 -62.082718 3.418315 -64.978171 -2.922648 0.000000 0.000000 0.000000 9.769317 14.250659 -5.699851 7.963571 -3.651143 -6.762347 -9.186055 3.866502 -0.826296 -51.040723 0.608379 20.003234 -25.360576 38.154782 19.962287 0.000000 0.000000 0.000000 
2.774411 74.998291 -59.801540 0.000000 0.000000 0.000000 23.575808 -57.831417 19.447644 -53.676117 -3.733825 25.688314 69.248740 -3.469307 3.326280 -14.635816 14.110927 -25.270624 -2.076104 -5.881704 -2.585093 0.000000 0.000000 0.000000 23.206922 -58.107322 19.896006 -62.984289 2.064285 -10.663814 78.859438 9.339563 -7.709128 -29.319970 -4.577446 19.775339 8.740684 5.240964 -46.844975 0.000000 0.000000 0.000000 23.376230 -56.056059 18.590472 5.182002 12.989809 -1.049721 11.005001 13.786817 -6.977363 0.360260 -1.166165 0.097721 0.000000 0.000000 0.000000 13.170281 15.216203 -6.531717 -9.873124 6.786193 17.863332 -42.053751 -27.306808 -19.077268 0.000000 0.000000 0.000000 8.870630 13.567718 -6.949173 7.069701 -11.980755 3.976871 0.708282 3.625803 -2.027475 -77.436006 -25.645168 -54.272427 5.385881 -64.881729 -1.634664 0.000000 0.000000 0.000000 9.929760 13.905492 -5.494264 7.314234 -5.232617 -3.173116 -10.367584 4.742474 -1.265448 -42.513949 -3.147413 20.769593 -21.896536 36.111060 20.506395 0.000000 0.000000 0.000000 
3.462511 74.014122 -59.589352 0.000000 0.000000 0.000000 27.234833 -56.272139 23.442526 -60.311329 -3.312478 25.953713 69.216358 -4.551969 3.198752 -12.570961 13.163680 -24.201939 -1.309386 -5.919481 -3.446807 0.000000 0.000000 0.000000 25.484687 -56.858190 23.017866 -66.889723 4.707646 -10.891012 80.926622 8.876816 -7.351477 -28.624843 -5.335207 21.632466 8.762100 5.169202 -43.129602 0.000000 0.000000 0.000000 26.095813 -53.935934 21.746781 6.790750 12.204795 -1.091494 11.228213 13.124168 -6.815698 0.321365 -1.231767 0.048490 0.000000 0.000000 0.000000 13.025140 14.530061 -6.040370 -11.593892 5.722865 18.108515 -41.920231 -16.663425 -18.869048 0.000000 0.000000 0.000000 8.800578 13.012440 -7.016442 6.226885 -11.866685 2.536769 0.127017 3.796127 -1.912740 -60.934235 -14.759052 -50.213792 6.380406 -62.406284 -0.658994 0.000000 0.000000 0.000000 10.081515 13.436061 -5.309941 6.786120 -6.063279 0.051606 -10.721250 5.860812 -1.537023 -33.048922 -9.185403 23.492625 -18.582564 34.921326 20.831406 0.000000 0.000000 0.000000 
3.931155 73.636246 -59.270947 0.000000 0.000000 0.000000 29.610403 -54.873152 26.394047 -65.361113 -2.108066 26.217857 68.342989 -5.651929 2.974619 -9.932678 11.773139 -22.321734 -1.953539 -5.974329 -4.621186 0.000000 0.000000 0.000000 27.253107 -55.763850 25.665848 -69.437090 7.201270 -11.214243 81.926343 8.951823 -7.365202 -27.866333 -5.751192 24.776503 7.826686 5.667195 -38.774622 0.000000 0.000000 0.000000 27.604507 -52.118243 23.943974 7.809475 11.458912 -0.766815 11.413204 12.456981 -6.721247 0.270003 -1.242809 0.064185 0.000000 0.000000 0.000000 12.854991 13.779662 -5.666827 -13.461427 4.717169 17.918076 -40.573448 -6.478285 -18.396724 0.000000 0.000000 0.000000 8.773714 12.438339 -7.194280 5.506131 -11.314552 1.478669 0.041955 3.561895 -1.394661 -45.292975 -4.318411 -50.894202 6.929890 -58.761169 0.133964 0.000000 0.000000 0.000000 10.353153 12.932856 -5.253017 6.365364 -5.795271 3.091980 -11.046929 6.790399 -1.517299 -22.578461 -16.275333 28.755294 -15.376947 33.882864 20.577852 0.000000 0.000000 0.000000 
4.072620 73.786713 -58.898296 0.000000 0.000000 0.000000 29.994588 -53.602457 27.712127 -68.183484 -0.451993 26.386370 66.549620 -6.884622 2.680424 -7.612407 10.227520 -20.198112 -3.444874 -5.897985 -5.894716 0.000000 0.000000 0.000000 28.212139 -54.393448 27.300724 -69.806364 8.978786 -11.808675 81.799725 9.327715 -7.623108 -27.796080 -6.050154 27.980399 6.497343 6.547537 -34.353150 0.000000 0.000000 0.000000 27.817407 -50.627862 25.004732 8.247541 10.834636 -0.132777 11.567322 11.824751 -6.739698 0.141099 -1.177735 0.109014 0.000000 0.000000 0.000000 12.705814 13.038375 -5.514969 -15.397808 3.968490 17.238402 -38.319673 1.978930 -17.747616 0.000000 0.000000 0.000000 8.871309 11.853047 -7.519354 4.868469 -10.568606 0.662542 -0.256538 3.267013 -0.966858 -31.403745 3.781376 -55.451598 7.543203 -54.859765 0.923175 0.000000 0.000000 0.000000 10.784533 12.429355 -5.343870 6.020950 -4.393005 5.858838 -11.606480 7.378583 -1.076555 -12.400323 -22.692822 35.855163 -12.469025 32.305104 19.660334 0.000000 0.000000 0.000000 
4.117158 74.479767 -58.706005 0.000000 0.000000 0.000000 28.534087 -52.289664 27.391646 -68.735274 1.108177 25.987618 64.263208 -8.219661 2.551716 -5.736540 8.659033 -18.589019 -4.472968 -5.633911 -7.139897 0.000000 0.000000 0.000000 28.060441 -53.031112 27.669750 -67.976959 9.446287 -12.810118 80.430129 9.569565 -7.812106 -28.601462 -6.803300 30.293569 5.651257 7.388981 -30.235666 0.000000 0.000000 0.000000 26.965809 -49.336328 25.032619 8.234747 10.321663 0.642090 11.675108 11.219502 -6.818857 0.003806 -1.140573 0.174677 0.000000 0.000000 0.000000 12.556621 12.348210 -5.521937 -17.156694 3.493601 16.011604 -35.603922 8.088029 -16.790193 0.000000 0.000000 0.000000 9.019820 11.247681 -7.858027 4.321820 -9.652168 0.079748 -0.805900 2.840841 -0.878947 -20.614448 8.750611 -61.773310 8.190960 -51.075472 1.603386 0.000000 0.000000 0.000000 11.251642 11.912042 -5.491939 5.677567 -2.231595 8.151325 -12.153102 7.341940 -0.873499 -4.621884 -27.525066 43.145936 -10.172435 29.960352 18.241275 0.000000 0.000000 0.000000 
4.042717 75.793465 -58.486073 0.000000 0.000000 0.000000 25.887771 -50.884028 25.907551 -67.094465 2.312970 24.822789 61.699155 -9.694563 2.717170 -4.388660 6.959312 -17.886476 -4.817002 -5.297106 -7.671643 0.000000 0.000000 0.000000 26.821960 -51.706021 26.909451 -64.015859 8.340405 -14.227240 77.973945 9.582070 -7.784505 -29.692898 -8.252623 31.433961 5.039924 8.051674 -26.546792 0.000000 0.000000 0.000000 25.101628 -47.912022 23.989993 7.976447 9.835408 1.296205 11.730094 10.603271 -6.847104 -0.066985 -1.105680 0.224978 0.000000 0.000000 0.000000 12.368918 11.718865 -5.556518 -18.538194 3.285028 14.376712 -32.997344 11.884254 -15.325662 0.000000 0.000000 0.000000 9.145219 10.614812 -8.020449 3.822569 -8.479770 -0.313241 -1.690342 2.370171 -1.215311 -13.655706 11.252842 -67.810651 8.798691 -47.441985 2.017917 0.000000 0.000000 0.000000 11.613218 11.339174 -5.542520 5.349720 0.136866 9.727381 -12.509258 6.848358 -0.726518 -0.450081 -30.775487 49.059610 -8.679630 26.988434 16.589618 0.000000 0.000000 0.000000 
3.898068 77.650398 -58.209843 0.000000 0.000000 0.000000 22.672777 -49.275997 23.786395 -63.760157 3.153756 22.893901 58.793244 -11.029089 3.106663 -3.852373 5.066964 -17.632905 -4.160154 -5.055040 -7.211578 0.000000 0.000000 0.000000 24.443106 -50.104287 25.063881 -58.488850 5.765510 -15.889020 74.646571 9.392223 -7.512813 -30.362079 -10.191712 31.636839 4.270758 8.504138 -23.498696 0.000000 0.000000 0.000000 22.807984 -46.051881 22.269922 7.609145 9.264574 1.603909 11.715501 9.939093 -6.700728 -0.055540 -1.055291 0.254529 0.000000 0.000000 0.000000 12.143002 11.141351 -5.475518 -19.375853 3.333553 12.467925 -30.938073 13.520384 -13.364692 0.000000 0.000000 0.000000 9.188671 9.967478 -7.880754 3.378254 -7.139836 -0.610287 -2.569058 1.742718 -2.026392 -10.129087 12.225498 -72.501891 9.119980 -44.079763 2.058562 0.000000 0.000000 0.000000 11.763228 10.698354 -5.395061 5.086660 2.250798 10.526288 -12.109590 6.084687 -0.668397 0.214146 -32.776705 53.017571 -7.989132 23.642860 14.909586 0.000000 0.000000 0.000000 
3.582623 79.897934 -57.964901 0.000000 0.000000 0.000000 19.448955 -47.289576 21.353196 -59.750263 3.377789 20.411781 55.772740 -12.048351 3.680099 -3.806027 2.882486 -17.533471 -2.314325 -4.995967 -5.939512 0.000000 0.000000 0.000000 21.418046 -48.357364 22.601588 -52.141480 2.193537 -17.425370 70.412775 9.152933 -7.063496 -30.328912 -12.369145 31.383780 3.169162 8.733794 -21.183994 0.000000 0.000000 0.000000 20.159028 -43.718207 19.963808 7.138394 8.549910 1.447200 11.580718 9.210159 -6.316739 0.060209 -1.003473 0.267873 0.000000 0.000000 0.000000 11.861880 10.588350 -5.185973 -19.622158 3.467813 10.460094 -29.440899 13.632768 -11.093606 0.000000 0.000000 0.000000 9.107307 9.323255 -7.373685 3.002972 -5.584799 -0.772112 -2.927024 1.191560 -2.636281 -8.835446 11.853314 -75.414994 9.061651 -41.100848 1.700807 0.000000 0.000000 0.000000 11.654399 9.986058 -5.027590 4.913281 3.692123 10.656665 -10.911529 5.258021 -0.670564 -1.268427 -33.688487 55.430632 -7.928956 20.392769 13.356227 0.000000 0.000000 0.000000 
3.058684 82.367569 -57.825817 0.000000 0.000000 0.000000 16.473660 -45.103892 18.758158 -55.380721 3.138399 17.758162 52.438562 -12.586708 4.185586 -3.915054 0.550240 -17.283080 -0.452773 -5.073876 -3.829883 0.000000 0.000000 0.000000 18.123221 -46.310947 19.748461 -45.279865 -1.662752 -18.490065 65.159171 9.037434 -6.513376 -29.717743 -14.470036 30.777939 1.953955 8.788993 -19.552736 0.000000 0.000000 0.000000 17.442061 -41.022902 17.302751 6.563048 7.764796 0.877534 11.336698 8.456096 -5.691274 0.175304 -0.879173 0.261285 0.000000 0.000000 0.000000 11.600023 10.046494 -4.699763 -19.325470 3.719978 8.583446 -28.376393 12.557620 -8.840903 0.000000 0.000000 0.000000 8.929368 8.707454 -6.569361 2.689057 -3.993240 -0.836019 -3.127463 0.854153 -2.898453 -8.565875 10.370954 -76.837326 8.574854 -38.826292 1.051894 0.000000 0.000000 0.000000 11.354850 9.224519 -4.494130 4.834510 4.384799 10.239671 -9.433352 4.353674 -0.311631 -3.172929 -33.480259 57.063365 -8.364188 17.710194 12.094394 0.000000 0.000000 0.000000 
2.334534 84.895294 -57.709080 0.000000 0.000000 0.000000 13.945295 -43.053589 16.151118 -51.108738 2.438225 15.357334 48.785965 -12.666036 4.501957 -3.375601 -1.551294 -17.055942 0.677392 -5.121595 -1.259049 0.000000 0.000000 0.000000 15.093781 -44.178808 16.806155 -38.307635 -5.192766 -18.868626 59.134070 8.989789 -5.851248 -28.870072 -16.228318 29.692123 1.494780 8.709975 -18.418165 0.000000 0.000000 0.000000 14.855772 -38.368806 14.568145 5.857619 7.036096 0.090108 11.025947 7.717369 -4.910373 0.206196 -0.760222 0.258450 0.000000 0.000000 0.000000 11.437213 9.486806 -4.077603 -18.591640 4.071356 6.966219 -27.409756 10.574768 -6.871438 0.000000 0.000000 0.000000 8.649508 8.142230 -5.619314 2.437994 -2.553354 -0.815012 -3.140015 0.804484 -3.061664 -8.506301 7.965194 -77.233675 7.636937 -37.663166 0.255665 0.000000 0.000000 0.000000 10.950639 8.444932 -3.890136 4.791370 4.383699 9.454243 -8.405677 3.490418 0.382457 -4.502702 -32.391223 58.419598 -9.214156 16.110639 11.261995 0.000000 0.000000 0.000000 
